<svg xmlns="http://www.w3.org/2000/svg" viewBox="0 0 410 404" fill="none">
  <path d="M399.641 59.525L215.643 388.545c-3.65 6.533-13.018 6.573-16.724.072L9.975 59.602c-4.04-7.066 1.96-15.716 9.942-14.336l184.656 31.89a10 10 0 003.393 0l181.738-31.852c7.973-1.397 13.988 7.228 9.937 14.221z" fill="#FFB13B"/>
  <path d="M292.965.756L156.418 27.532a5 5 0 00-4.066 4.093l-8.4 47.74a5 5 0 006.066 5.806l37.998-8.426a5 5 0 015.972 6.268l-11.282 55.276a5 5 0 006.36 5.806l23.476-7.238a5 5 0 016.189 6.068l-17.941 86.572c-1.123 5.423 6.09 8.38 9.085 3.726l2.002-3.112 111.274-222.14c1.863-3.72-1.354-7.875-5.45-7.273z" fill="#875CFF"/>
</svg>
